<?xml version="1.0" standalone="no"?>
<!DOCTYPE svg PUBLIC "-//W3C//DTD SVG 20010904//EN"
 "http://www.w3.org/TR/2001/REC-SVG-20010904/DTD/svg10.dtd">
<svg version="1.0" xmlns="http://www.w3.org/2000/svg"
 width="1754.000000pt" height="2048.000000pt" viewBox="0 0 1754.000000 2048.000000"
 preserveAspectRatio="xMidYMid meet">

<g transform="translate(0.000000,2048.000000) scale(0.100000,-0.100000)"
fill="#fff" stroke="none">
<path d="M10088 20188 c-79 -161 -364 -742 -633 -1290 l-489 -998 -258 0
c-1768 0 -3530 -568 -4985 -1608 -884 -632 -1632 -1404 -2231 -2303 -827
-1243 -1325 -2662 -1456 -4149 -167 -1893 262 -3770 1232 -5390 86 -143 336
-525 350 -534 5 -3 176 319 380 716 l371 721 -58 106 c-788 1431 -1080 3163
-810 4806 233 1416 866 2736 1817 3786 1158 1279 2667 2095 4352 2353 160 24
506 61 641 68 l67 4 -23 -51 c-13 -27 -1817 -3713 -4009 -8190 -3392 -6926
-3983 -8141 -3968 -8146 9 -4 674 -19 1477 -33 803 -15 1532 -29 1620 -32
l160 -6 1325 2996 1325 2996 2012 0 2013 0 2 -599 3 -599 320 246 c176 135
570 437 875 672 305 234 818 628 1140 875 322 246 591 453 598 460 14 13 80
-51 -1978 1884 l-865 814 -3 -582 -2 -581 -1521 0 c-1489 0 -1521 0 -1516 19
2 10 686 1637 1518 3614 l1514 3595 3 -2658 2 -2658 443 -420 c243 -230 798
-755 1232 -1166 l790 -747 3 3516 c1 1933 5 3515 10 3515 9 0 226 -158 379
-277 380 -294 795 -696 1123 -1088 938 -1122 1528 -2505 1689 -3960 34 -305
44 -497 44 -840 0 -344 -10 -537 -44 -840 -171 -1551 -827 -3014 -1870 -4169
-1221 -1353 -2845 -2189 -4644 -2390 -496 -56 -1098 -56 -1595 0 -881 98
-1696 340 -2480 736 -107 54 -196 94 -198 90 -1 -4 -139 -291 -307 -637 l-305
-630 208 -104 c1542 -773 3253 -1062 4992 -845 1300 162 2562 632 3675 1369
1167 772 2119 1792 2816 3018 995 1749 1366 3821 1043 5832 -243 1515 -881
2951 -1839 4145 -715 890 -1551 1600 -2570 2182 l-60 34 -3 1822 -2 1822
-1349 0 -1350 0 -143 -292z"/>
<path d="M11595 5089 c-693 -594 -1267 -1086 -1275 -1094 -12 -13 145 -15
1268 -15 l1282 0 0 1095 c0 602 -3 1095 -7 1094 -5 0 -575 -486 -1268 -1080z"/>
</g>
</svg>
